<svg width="714" height="116" viewBox="0 0 714 116" fill="none" xmlns="http://www.w3.org/2000/svg">
<path d="M0.159037 6.06115C2.27953 6.16749 4.82411 6.27382 7.7928 6.38016C10.8675 6.48649 13.8362 6.53966 16.6989 6.53966C19.2434 6.53966 21.788 6.53966 24.3326 6.53966C26.8772 6.43333 29.4218 6.38016 31.9664 6.38016C34.511 6.27382 37.0025 6.22066 39.4411 6.22066C45.5905 6.22066 51.2098 6.85867 56.299 8.13471C61.3882 9.41074 65.4701 11.7501 68.5448 15.1529C71.7255 18.4493 73.3159 23.2344 73.3159 29.5083C73.3159 36.3138 71.2484 42.1623 67.1135 47.0537C62.9785 51.8388 57.3592 54.7631 50.2556 55.8264C55.8749 56.1454 61.0171 57.2088 65.6821 59.0165C70.4532 60.7179 74.2701 63.4826 77.1328 67.3107C79.9954 71.1388 81.4268 76.3493 81.4268 82.9421C81.4268 88.6843 80.1015 93.9479 77.4509 98.733C74.9063 103.518 70.8243 107.346 65.205 110.217C59.5857 112.982 52.2701 114.364 43.258 114.364C40.2893 114.364 36.7375 114.364 32.6025 114.364C28.5736 114.364 24.4386 114.364 20.1977 114.364C15.9567 114.471 12.0338 114.524 8.42894 114.524C4.82411 114.63 2.01446 114.737 0 114.843C0 113.354 0.0530123 112.078 0.159037 111.015C0.265061 109.845 0.47711 108.835 0.795184 107.984C3.65784 107.772 5.88436 107.24 7.47472 106.389C9.06509 105.539 10.1783 104.05 10.8145 101.923C11.5567 99.6901 11.9278 96.5 11.9278 92.3529V26.7967C11.9278 23.1813 11.6097 20.4165 10.9735 18.5025C10.3374 16.5884 9.22413 15.2061 7.63376 14.3554C6.04339 13.5047 3.81688 13.0262 0.95422 12.9198C0.636147 12.0691 0.424098 11.0589 0.318073 9.88925C0.212049 8.61322 0.159037 7.33718 0.159037 6.06115ZM26.8772 12.1223V92.3529C26.8772 96.7127 27.2483 100.009 27.9905 102.242C28.8386 104.369 30.323 105.804 32.4435 106.549C34.67 107.187 37.7447 107.506 41.6676 107.506C49.5134 107.506 55.2387 105.539 58.8436 101.604C62.5544 97.5633 64.4099 92.087 64.4099 85.1752C64.4099 80.1774 63.4026 76.1366 61.3882 73.0529C59.3737 69.8628 56.6701 67.4702 53.2773 65.8752C49.9905 64.1738 46.3327 63.0041 42.3038 62.3661C38.3809 61.7281 34.4579 61.4091 30.535 61.4091H24.9688V54.5504H31.8073C38.6989 54.5504 43.9471 53.5934 47.552 51.6793C51.1568 49.7653 53.6484 47.2664 55.0267 44.1826C56.405 40.9925 57.0942 37.6961 57.0942 34.2934C57.0942 28.7639 55.8219 24.5105 53.2773 21.5331C50.8387 18.4493 47.764 16.3226 44.0532 15.1529C40.4483 13.8769 36.8965 13.2388 33.3977 13.2388C32.0194 13.2388 30.6411 13.3452 29.2627 13.5578C27.9905 13.6642 26.4531 13.9832 24.6507 14.5149L26.8772 12.1223Z" fill="#FFB45F"/>
<path d="M247.973 114.843C247.973 113.78 248.026 112.663 248.132 111.493C248.238 110.217 248.45 109.048 248.768 107.984C253.009 107.984 255.872 107.027 257.356 105.113C258.947 103.093 259.742 99.4242 259.742 94.1074V22.6496C259.742 20.0975 259.477 18.024 258.947 16.4289C258.522 14.7275 257.462 13.4515 255.766 12.6008C254.069 11.7501 251.419 11.3248 247.814 11.3248C247.814 10.1551 247.92 9.09173 248.132 8.13471C248.344 7.17768 248.715 6.27383 249.245 5.42314C250.836 5.42314 253.062 5.1573 255.925 4.62562C258.893 4.09394 261.756 3.40275 264.513 2.55206C267.269 1.70137 269.284 0.850684 270.556 0C271.51 0.319004 272.306 0.957019 272.942 1.91404C273.684 2.87107 274.055 4.35977 274.055 6.38016V94.1074C274.055 99.4242 274.744 103.093 276.122 105.113C277.607 107.027 280.045 107.984 283.438 107.984C283.756 109.048 283.968 110.271 284.074 111.653C284.18 113.035 284.233 114.099 284.233 114.843C281.477 114.63 278.561 114.471 275.486 114.364C272.412 114.364 269.337 114.364 266.262 114.364C264.248 114.364 262.127 114.364 259.901 114.364C257.78 114.471 255.713 114.524 253.698 114.524C251.684 114.63 249.775 114.737 247.973 114.843ZM304.59 115.8C302.788 113.035 300.614 109.951 298.07 106.549C295.525 103.146 292.768 99.6369 289.8 96.0215C286.831 92.2997 283.756 88.7374 280.576 85.3347C277.501 81.8256 274.532 78.6887 271.669 75.924L285.824 62.8446C289.429 59.5482 292.026 56.8898 293.617 54.8694C295.207 52.7427 296.002 51.1477 296.002 50.0843C296.002 49.2336 295.578 48.5956 294.73 48.1702C293.988 47.7449 292.874 47.5322 291.39 47.5322C291.072 46.4689 290.807 45.4055 290.595 44.3421C290.489 43.2788 290.436 42.1623 290.436 40.9926C292.768 41.0989 294.889 41.2052 296.797 41.3116C298.812 41.3116 300.667 41.3116 302.363 41.3116C304.06 41.3116 305.597 41.3116 306.976 41.3116C308.778 41.3116 311.005 41.3116 313.655 41.3116C316.306 41.2052 319.062 41.0989 321.925 40.9926C321.925 42.0559 321.819 43.2256 321.607 44.5016C321.501 45.6713 321.236 46.7347 320.812 47.6917C318.797 47.6917 316.783 48.0107 314.768 48.6488C312.86 49.2868 310.792 50.297 308.566 51.6793C306.445 53.0617 304.06 54.9757 301.409 57.4215L283.915 73.3719L283.597 68.2678C287.308 72.0959 291.125 76.243 295.048 80.7091C298.971 85.0689 303.689 90.6515 309.202 97.457C311.323 100.009 313.125 101.976 314.609 103.359C316.2 104.741 317.843 105.751 319.539 106.389C321.236 106.921 323.303 107.293 325.742 107.506C325.742 108.994 325.689 110.324 325.583 111.493C325.477 112.557 325.265 113.514 324.947 114.364C322.402 114.364 320.017 114.418 317.79 114.524C315.564 114.63 313.39 114.737 311.27 114.843C309.149 115.056 306.923 115.375 304.59 115.8Z" fill="#FFB45F"/>
<path d="M379.802 45.4587C379.696 48.0107 379.59 50.7223 379.484 53.5934C379.484 56.4645 379.696 59.2824 380.12 62.0471C379.06 62.6851 377.841 63.1636 376.462 63.4826C375.084 63.8016 373.653 63.9611 372.168 63.9611C371.956 60.9837 371.055 58.1658 369.465 55.5074C367.98 52.849 365.966 50.6691 363.421 48.9678C360.877 47.2664 357.855 46.4157 354.356 46.4157C351.069 46.4157 348.419 47.2132 346.404 48.8083C344.496 50.4033 343.542 52.53 343.542 55.1884C343.542 56.9961 343.913 58.5912 344.655 59.9735C345.503 61.3559 347.252 62.8446 349.903 64.4397C352.66 65.9284 356.848 67.7892 362.467 70.0223C368.192 72.149 372.698 74.2757 375.985 76.4025C379.272 78.5292 381.604 80.9218 382.983 83.5802C384.361 86.2386 385.05 89.4818 385.05 93.3099C385.05 97.776 383.778 101.71 381.233 105.113C378.689 108.516 375.19 111.174 370.737 113.088C366.39 114.896 361.46 115.8 355.946 115.8C349.585 115.8 344.496 115.321 340.679 114.364C336.968 113.301 333.31 111.812 329.705 109.898C329.917 108.197 330.023 106.123 330.023 103.678C330.13 101.232 330.183 98.7862 330.183 96.3405C330.183 93.8948 330.077 91.8212 329.864 90.1198C330.713 89.4818 331.879 89.0565 333.363 88.8438C334.954 88.5248 336.544 88.3653 338.134 88.3653C338.983 95.0644 341.05 100.062 344.337 103.359C347.624 106.655 352.024 108.303 357.537 108.303C361.884 108.303 365.224 107.346 367.556 105.432C369.995 103.518 371.214 101.072 371.214 98.095C371.214 96.181 370.737 94.5328 369.783 93.1504C368.934 91.768 367.291 90.3857 364.853 89.0033C362.414 87.6209 358.809 85.9727 354.038 84.0587C348.313 81.7193 343.701 79.5394 340.202 77.519C336.809 75.4986 334.318 73.106 332.727 70.3413C331.243 67.5766 330.501 64.0675 330.501 59.814C330.501 56.4113 331.349 53.487 333.045 51.0413C334.742 48.4892 336.915 46.4157 339.566 44.8207C342.322 43.1193 345.238 41.8964 348.313 41.1521C351.387 40.3014 354.25 39.876 356.901 39.876C361.672 39.876 365.86 40.3545 369.465 41.3116C373.069 42.2686 376.515 43.651 379.802 45.4587Z" fill="#FFB45F"/>
<path d="M455.302 115.8L416.974 32.2198H418.565L413.157 86.2917C412.627 91.9275 412.574 96.2873 412.998 99.3711C413.422 102.348 414.483 104.475 416.179 105.751C417.981 106.921 420.42 107.665 423.495 107.984C423.813 109.048 424.025 110.271 424.131 111.653C424.237 113.035 424.29 114.099 424.29 114.843C421.745 114.63 418.83 114.471 415.543 114.364C412.362 114.364 409.606 114.364 407.273 114.364C405.789 114.364 404.039 114.364 402.025 114.364C400.116 114.471 398.208 114.524 396.299 114.524C394.497 114.63 392.854 114.737 391.369 114.843C391.369 114.099 391.422 113.035 391.528 111.653C391.634 110.271 391.846 109.048 392.164 107.984C395.027 107.665 397.254 106.974 398.844 105.911C400.54 104.741 401.866 102.561 402.82 99.3711C403.774 96.181 404.516 91.3427 405.046 84.8562L410.136 28.0727C410.454 24.2446 410.295 21.2672 409.659 19.1405C409.128 16.9074 408.015 15.3124 406.319 14.3554C404.728 13.3983 402.449 12.9198 399.48 12.9198C399.162 11.8565 398.95 10.6868 398.844 9.41074C398.738 8.13471 398.685 7.01818 398.685 6.06115C399.745 6.16749 400.965 6.27382 402.343 6.38016C403.721 6.38016 405.152 6.43333 406.637 6.53966C408.121 6.53966 409.499 6.53966 410.772 6.53966C412.15 6.53966 413.475 6.53966 414.748 6.53966C416.126 6.43333 417.451 6.38016 418.724 6.38016C420.102 6.27382 421.48 6.16749 422.859 6.06115L464.526 98.414H461.027L497.288 6.06115C498.56 6.16749 499.885 6.27382 501.264 6.38016C502.642 6.38016 504.02 6.43333 505.399 6.53966C506.883 6.53966 508.314 6.53966 509.693 6.53966C511.071 6.53966 512.396 6.53966 513.668 6.53966C515.047 6.43333 516.372 6.38016 517.644 6.38016C519.023 6.27382 520.401 6.16749 521.779 6.06115C521.779 7.12451 521.726 8.24104 521.62 9.41074C521.514 10.5804 521.302 11.7501 520.984 12.9198C517.273 12.9198 514.358 14.0364 512.237 16.2694C510.223 18.3961 509.534 22.6496 510.17 29.0297L515.895 87.5677C516.425 92.7782 517.114 96.819 517.962 99.6901C518.811 102.561 519.977 104.582 521.461 105.751C523.052 106.921 525.066 107.612 527.505 107.825C527.823 108.888 528.035 110.058 528.141 111.334C528.247 112.61 528.3 113.78 528.3 114.843C527.028 114.737 525.596 114.63 524.006 114.524C522.416 114.524 520.719 114.471 518.917 114.364C517.22 114.364 515.524 114.364 513.828 114.364C512.237 114.364 510.7 114.364 509.215 114.364C507.307 114.364 505.187 114.364 502.854 114.364C500.521 114.471 498.189 114.524 495.856 114.524C493.63 114.63 491.615 114.737 489.813 114.843C489.813 113.886 489.866 112.769 489.972 111.493C490.184 110.217 490.449 109.048 490.767 107.984C494.16 107.665 496.599 106.974 498.083 105.911C499.673 104.847 500.574 103.04 500.787 100.488C501.105 97.9355 500.999 94.3201 500.468 89.6413L494.425 31.5818H496.174L461.823 114.683C460.868 115.109 459.861 115.375 458.801 115.481C457.741 115.694 456.574 115.8 455.302 115.8Z" fill="#FFB45F"/>
<path d="M582.796 115.8C581.63 115.268 580.676 114.311 579.933 112.929C579.297 111.547 578.979 109.367 578.979 106.389C578.979 105.432 579.032 104.316 579.138 103.04C579.244 101.657 579.456 100.434 579.774 99.3711H580.092C579.774 101.072 579.032 102.933 577.866 104.954C576.806 106.868 575.374 108.569 573.572 110.058C571.77 111.653 569.49 112.982 566.733 114.045C563.977 115.002 560.637 115.481 556.714 115.481C550.034 115.481 544.945 113.992 541.447 111.015C537.948 107.931 536.198 103.784 536.198 98.5735C536.198 94.4264 537.153 90.9173 539.061 88.0463C541.075 85.0689 543.62 82.6231 546.695 80.7091C549.875 78.6887 553.268 77.0937 556.873 75.924C560.584 74.7543 564.189 73.8504 567.688 73.2124C571.186 72.5744 574.261 72.0427 576.912 71.6173C576.912 67.2576 576.806 63.8548 576.594 61.4091C576.488 58.9633 576.169 57.0493 575.639 55.6669C575.215 54.1782 574.526 52.9022 573.572 51.8388C572.3 50.2438 570.815 49.0741 569.119 48.3297C567.529 47.4791 565.726 47.0537 563.712 47.0537C560.213 47.0537 557.456 48.1702 555.442 50.4033C553.427 52.53 551.996 55.0289 551.148 57.9C550.3 60.7711 549.822 63.3231 549.716 65.5562C548.55 65.5562 547.066 65.503 545.263 65.3967C543.567 65.184 542.295 64.865 541.447 64.4397C541.659 61.7813 541.712 58.8038 541.606 55.5074C541.5 52.211 541.181 49.3931 540.651 47.0537C544.998 44.8207 549.557 43.0661 554.328 41.7901C559.206 40.514 563.659 39.876 567.688 39.876C571.61 39.876 574.95 40.4609 577.707 41.6306C580.57 42.6939 582.849 44.1295 584.545 45.9372C587.302 48.5956 589.104 52.1047 589.953 56.4645C590.801 60.7179 591.225 66.4069 591.225 73.5314V91.0768C591.225 94.0543 591.437 96.4468 591.861 98.2545C592.391 99.9559 593.345 101.232 594.724 102.083C596.102 102.827 598.223 103.305 601.085 103.518C601.085 104.582 601.032 105.804 600.926 107.187C600.82 108.463 600.555 109.686 600.131 110.855C597.48 110.962 594.512 111.493 591.225 112.45C588.044 113.301 585.235 114.418 582.796 115.8ZM561.167 106.708C563.5 106.708 565.885 105.964 568.324 104.475C570.762 102.88 572.777 100.434 574.367 97.138C576.063 93.8416 576.912 89.535 576.912 84.2182V78.157C574.261 78.476 571.451 78.9545 568.483 79.5925C565.514 80.1242 562.757 80.9749 560.213 82.1446C557.668 83.3143 555.601 84.9625 554.01 87.0892C552.42 89.1096 551.625 91.8744 551.625 95.3835C551.625 99.3179 552.579 102.189 554.487 103.997C556.396 105.804 558.622 106.708 561.167 106.708Z" fill="#FFB45F"/>
<path d="M633.854 90.9173C633.854 95.4898 634.331 98.9989 635.286 101.445C636.24 103.784 637.777 105.432 639.898 106.389C642.018 107.24 644.722 107.772 648.009 107.984C648.327 108.835 648.539 109.845 648.645 111.015C648.751 112.078 648.804 113.354 648.804 114.843C647.213 114.737 645.305 114.63 643.078 114.524C640.958 114.524 638.678 114.471 636.24 114.364C633.801 114.364 631.31 114.364 628.765 114.364C625.054 114.364 621.131 114.364 616.996 114.364C612.967 114.471 609.893 114.63 607.772 114.843C607.772 113.354 607.825 112.078 607.931 111.015C608.037 109.845 608.249 108.835 608.567 107.984C611.43 107.772 613.657 107.293 615.247 106.549C616.837 105.698 617.951 104.316 618.587 102.402C619.223 100.381 619.541 97.6165 619.541 94.1074V78.157H633.854V90.9173ZM633.854 67.6297V80.2306H619.541V62.5256L633.854 46.8942C633.854 50.5096 633.536 53.806 632.9 56.7835C632.264 59.6545 631.681 62.5256 631.151 65.3967L633.854 67.6297ZM630.355 66.3537C631.522 63.3763 632.423 60.9306 633.059 59.0165C633.695 57.1025 634.384 55.5074 635.127 54.2314C637.459 50.5096 640.216 47.4259 643.396 44.9802C646.577 42.5344 650.235 41.3116 654.37 41.3116C658.399 41.3116 662.057 42.5876 665.344 45.1397C665.131 46.841 664.919 48.8083 664.707 51.0413C664.495 53.2744 664.336 55.5074 664.23 57.7405C664.23 59.9735 664.23 62.0471 664.23 63.9611C663.276 64.2802 661.951 64.5992 660.254 64.9182C658.664 65.2372 656.968 65.3967 655.165 65.3967C654.953 60.2925 654.105 56.943 652.621 55.3479C651.242 53.7529 649.493 52.9554 647.372 52.9554C645.57 52.9554 643.609 54.0187 641.488 56.1454C639.368 58.1658 637.565 60.8774 636.081 64.2802C634.596 67.6829 633.854 71.4578 633.854 75.6049L630.355 66.3537ZM619.541 80.2306V62.5256C619.541 59.9735 619.276 57.9 618.746 56.3049C618.216 54.7099 617.102 53.487 615.406 52.6364C613.71 51.7857 611.112 51.3072 607.613 51.2008C607.613 50.0311 607.719 48.9678 607.931 48.0107C608.143 47.0537 608.514 46.1499 609.045 45.2992C612.331 45.0865 616.095 44.4485 620.336 43.3851C624.577 42.3218 627.917 41.1521 630.355 39.876C631.31 40.195 632.105 40.8862 632.741 41.9496C633.483 42.9066 633.854 44.5548 633.854 46.8942L619.541 80.2306Z" fill="#FFB45F"/>
<path d="M696.029 115.8C689.773 115.8 685.108 114.205 682.034 111.015C679.065 107.718 677.581 102.455 677.581 95.224V51.9983C675.99 51.4667 674.347 51.0413 672.65 50.7223C670.954 50.297 668.781 50.0311 666.13 49.9248C666.13 48.5424 666.236 47.3727 666.448 46.4157C666.66 45.3523 667.031 44.1826 667.561 42.9066H677.581V21.8521C679.701 21.3204 681.769 20.4697 683.783 19.3C685.904 18.1303 687.759 16.8543 689.349 15.4719C690.409 15.8972 691.099 16.5353 691.417 17.3859C691.735 18.2366 691.894 20.3634 691.894 23.7661V42.9066H712.569C712.569 43.97 712.463 45.1397 712.251 46.4157C712.039 47.5854 711.667 48.7551 711.137 49.9248C707.32 50.0311 703.822 50.297 700.641 50.7223C697.46 51.0413 694.544 51.4667 691.894 51.9983V91.8744C691.894 95.3835 692.265 98.3077 693.007 100.647C693.749 102.88 694.81 104.528 696.188 105.592C697.566 106.655 699.21 107.187 701.118 107.187C703.344 107.187 705.253 106.868 706.843 106.23C708.54 105.592 710.13 104.635 711.614 103.359C712.993 104.954 713.788 106.708 714 108.622C712.304 110.643 709.706 112.344 706.207 113.726C702.814 115.109 699.422 115.8 696.029 115.8Z" fill="#FFB45F"/>
<path d="M109.946 83.5241C108.425 82.0307 105.959 82.031 104.438 83.5249L103.205 84.7358C101.685 86.2296 101.685 88.6514 103.206 90.1449C103.967 90.8916 104.963 91.265 105.959 91.265C106.956 91.265 107.953 90.8912 108.714 90.1441L109.947 88.9333C111.467 87.439 111.467 85.0176 109.946 83.5241Z" fill="#FFB45F"/>
<path d="M203.357 83.5241C201.836 82.0307 199.37 82.031 197.849 83.5249L196.617 84.7358C195.096 86.2296 195.096 88.6514 196.617 90.1449C197.378 90.8916 198.374 91.265 199.371 91.265C200.368 91.265 201.365 90.8912 202.125 90.1441L203.358 88.9333C204.878 87.439 204.878 85.0176 203.357 83.5241Z" fill="#FFB45F"/>
<path d="M261.547 69.9118H256.366C253.154 51.2795 236.606 37.0439 216.733 37.0439C204.323 37.0439 193.21 42.5954 185.831 51.3011C182.665 45.9466 176.765 42.3362 170.02 42.3362C163.274 42.3362 157.374 45.9469 154.209 51.3011C146.829 42.5954 135.716 37.0439 123.306 37.0439C103.433 37.0439 86.885 51.2795 83.6731 69.9118H78.4923C76.3412 69.9118 74.5975 71.6242 74.5975 73.7367C74.5975 75.8491 76.3412 77.5615 78.4923 77.5615H83.121C83.6842 98.8513 101.494 116 123.307 116C145.473 116 163.507 98.2902 163.507 76.5219C163.507 70.4268 162.092 64.6498 159.57 59.4911C159.983 54.1823 164.51 49.9855 170.02 49.9855C175.53 49.9855 180.057 54.1823 180.47 59.4911C177.948 64.6502 176.533 70.4268 176.533 76.5219C176.533 98.2902 194.567 116 216.733 116C238.545 116 256.356 98.8513 256.919 77.5615H261.547C263.699 77.5615 265.442 75.8491 265.442 73.7367C265.442 71.6242 263.698 69.9118 261.547 69.9118ZM123.306 108.35C120.297 108.35 117.386 107.937 114.62 107.18L140.662 81.6053C142.183 80.1118 142.183 77.6896 140.662 76.1961C139.141 74.7027 136.675 74.7027 135.154 76.1961L106.892 103.95C97.3292 98.4095 90.8964 88.1923 90.8964 76.5219C90.8964 58.9717 105.436 44.6936 123.307 44.6936C128.175 44.6936 132.793 45.7599 136.941 47.6571L113.348 70.8269C111.827 72.3204 111.827 74.7426 113.348 76.236C114.109 76.9832 115.105 77.3562 116.102 77.3562C117.098 77.3562 118.095 76.9824 118.855 76.236L143.716 51.8213C151.031 57.662 155.716 66.5632 155.716 76.5219C155.717 94.0722 141.177 108.35 123.306 108.35ZM216.732 108.35C213.735 108.35 210.835 107.94 208.078 107.189L234.13 81.6053C235.651 80.1118 235.652 77.6896 234.13 76.1961C232.609 74.7027 230.143 74.7027 228.622 76.1961L200.345 103.966C190.767 98.4289 184.322 88.2037 184.322 76.5227C184.322 58.9724 198.861 44.6943 216.732 44.6943C221.597 44.6943 226.211 45.7591 230.356 47.6531L206.759 70.8269C205.238 72.3204 205.238 74.7426 206.759 76.236C207.52 76.9832 208.517 77.3562 209.513 77.3562C210.509 77.3562 211.507 76.9824 212.267 76.236L237.134 51.8151C244.454 57.6557 249.142 66.5599 249.142 76.5223C249.143 94.0722 234.603 108.35 216.732 108.35Z" fill="#FFB45F"/>
</svg>
